<svg width="100%" height="100%" fill="none" xmlns="http://www.w3.org/2000/svg">
  <rect width="100%" height="10000" x="0%" y="0%" fill="green"/>
  <rect width="80%" height="10000" x="70%" y="0%" fill="yellow"/>
  <rect width="100%" height="10000" x="90%" y="0%" fill="red"/>
  <rect width="1%" height="10000" x="5%" y="0%" fill="black"/>
  <rect width="1%" height="10000" x="10%" y="0%" fill="black"/>
  <rect width="1%" height="10000" x="15%" y="0%" fill="black"/>
  <rect width="1%" height="10000" x="20%" y="0%" fill="black"/>
  <rect width="1%" height="10000" x="25%" y="0%" fill="black"/>
  <rect width="1%" height="10000" x="30%" y="0%" fill="black"/>
  <rect width="1%" height="10000" x="35%" y="0%" fill="black"/>
  <rect width="1%" height="10000" x="40%" y="0%" fill="black"/>
  <rect width="1%" height="10000" x="45%" y="0%" fill="black"/>
  <rect width="1%" height="10000" x="50%" y="0%" fill="black"/>
  <rect width="1%" height="10000" x="55%" y="0%" fill="black"/>
  <rect width="1%" height="10000" x="60%" y="0%" fill="black"/>
  <rect width="1%" height="10000" x="65%" y="0%" fill="black"/>
  <rect width="1%" height="10000" x="60%" y="0%" fill="black"/>
  <rect width="1%" height="10000" x="70%" y="0%" fill="black"/>
  <rect width="1%" height="10000" x="75%" y="0%" fill="black"/>
  <rect width="1%" height="10000" x="80%" y="0%" fill="black"/>
  <rect width="1%" height="10000" x="85%" y="0%" fill="black"/>
  <rect width="1%" height="10000" x="90%" y="0%" fill="black"/>
  <rect width="1%" height="10000" x="95%" y="0%" fill="black"/>
</svg>
