<?xml version="1.0" standalone="no"?>
<!DOCTYPE svg PUBLIC "-//W3C//DTD SVG 20010904//EN"
 "http://www.w3.org/TR/2001/REC-SVG-20010904/DTD/svg10.dtd">
<svg version="1.0" xmlns="http://www.w3.org/2000/svg"
 width="1200.000000pt" height="1200.000000pt" viewBox="0 0 1200.000000 1200.000000"
 preserveAspectRatio="xMidYMid meet">

<g transform="translate(0.000000,1200.000000) scale(0.100000,-0.100000)"
fill="#000000" stroke="none">
<path d="M0 11141 l0 -411 6000 0 6000 0 0 405 0 405 -24 6 c-13 3 -138 4
-277 2 -287 -4 -307 -9 -367 -79 -36 -42 -53 -47 -72 -24 -7 8 -16 12 -22 9
-5 -3 -4 -12 4 -21 11 -13 7 -21 -26 -49 l-39 -34 -179 0 -179 0 -49 38 c-172
129 -215 152 -291 152 -67 0 -128 -26 -167 -72 -19 -21 -38 -38 -43 -38 -6 0
-27 13 -47 29 -20 16 -66 42 -102 57 -54 23 -80 27 -150 28 -72 0 -94 -4 -147
-28 -33 -15 -74 -41 -89 -57 -15 -16 -33 -29 -39 -29 -6 0 -26 15 -45 33 -19
18 -58 43 -87 55 -95 40 -178 25 -262 -49 -24 -21 -48 -39 -53 -39 -5 0 -31
-18 -57 -40 l-47 -40 -176 0 -176 0 -48 40 c-27 22 -53 40 -57 40 -5 0 -25 14
-45 31 -20 18 -61 44 -92 58 l-55 26 -315 0 c-357 0 -376 -3 -438 -76 -36 -42
-52 -48 -72 -24 -7 8 -16 12 -22 9 -5 -3 -4 -12 4 -21 11 -13 7 -21 -26 -49
l-39 -34 -179 0 -179 0 -49 38 c-181 136 -223 157 -320 157 -85 -1 -156 -26
-209 -75 l-43 -40 -41 34 c-68 54 -147 80 -252 80 -101 0 -164 -21 -220 -73
-16 -16 -41 -34 -55 -41 -14 -7 -43 -28 -66 -47 l-41 -33 -176 0 -176 0 -38
33 c-21 17 -39 35 -41 40 -2 4 -11 7 -21 7 -9 0 -32 15 -50 34 -19 19 -57 45
-85 58 -50 22 -58 23 -366 23 l-315 0 -52 -27 c-29 -16 -68 -41 -86 -58 -19
-16 -38 -30 -42 -30 -4 0 -29 -18 -55 -40 l-48 -40 -183 0 -184 0 -44 40 c-24
22 -49 40 -55 40 -6 0 -30 18 -54 40 -54 51 -101 70 -166 70 -61 0 -138 -34
-180 -79 -17 -17 -35 -31 -42 -31 -6 0 -31 -18 -55 -40 l-44 -40 -184 0 -183
0 -48 40 c-26 22 -52 40 -56 40 -5 0 -27 16 -49 36 -22 20 -60 46 -85 58 -43
20 -59 21 -360 21 -313 0 -315 0 -370 -25 -30 -13 -59 -29 -65 -35 -5 -5 -22
-20 -36 -33 l-25 -22 -40 34 c-21 18 -68 44 -104 57 -63 23 -73 24 -375 24
-301 0 -312 -1 -366 -23 -31 -13 -71 -39 -90 -58 -18 -19 -37 -34 -41 -34 -5
0 -31 18 -58 39 -103 82 -244 99 -375 47 -38 -16 -84 -41 -100 -57 -17 -16
-36 -29 -42 -29 -6 0 -25 16 -42 35 -42 48 -110 76 -203 82 l-78 6 0 -412z
m1972 194 c4 -5 8 -59 8 -120 l-1 -110 -42 -37 -43 -36 -42 35 -42 35 0 98 0
98 52 46 52 46 25 -23 c14 -12 29 -26 33 -32z m3554 9 l54 -46 0 -111 -1 -112
-84 -73 -85 -73 0 202 0 203 27 28 c15 15 29 28 31 28 3 0 29 -21 58 -46z
m584 -207 c0 -116 -4 -197 -9 -195 -5 2 -43 32 -85 68 l-76 65 0 111 0 111 50
47 50 47 35 -28 35 -28 0 -198z m560 -4 l0 -205 -61 54 c-33 29 -72 61 -85 71
-23 18 -24 24 -24 130 l0 112 52 46 52 47 33 -25 33 -25 0 -205z m2066 211
l54 -46 0 -111 -1 -112 -84 -73 -85 -73 0 202 0 203 27 28 c15 15 29 28 31 28
3 0 29 -21 58 -46z m576 -9 c11 -15 10 -397 -1 -393 -5 2 -43 32 -85 68 l-76
65 0 111 0 111 51 48 50 47 27 -23 c15 -13 30 -28 34 -34z m488 -136 l0 -97
-40 -36 c-22 -20 -43 -36 -48 -36 -4 0 -24 16 -44 35 l-38 35 0 119 0 120 32
24 31 25 54 -46 53 -47 0 -96z m-9420 135 l50 -47 0 -93 0 -93 -82 -71 -83
-70 -3 182 -2 181 27 29 c15 15 31 28 35 28 5 0 31 -21 58 -46z m552 19 c27
-26 28 -29 28 -139 l0 -112 -42 -36 c-23 -20 -44 -36 -47 -36 -3 0 -23 16 -43
35 l-38 35 0 97 0 97 48 43 c26 23 51 42 56 43 6 0 23 -12 38 -27z m2031 -19
l47 -45 0 -94 0 -94 -82 -71 -83 -70 -3 185 -2 186 27 24 c16 13 33 24 38 24
6 0 31 -20 58 -45z m549 19 c27 -26 28 -29 28 -139 l0 -112 -42 -36 c-23 -20
-44 -36 -47 -36 -3 0 -23 16 -43 35 l-38 35 0 98 0 97 48 42 c26 23 51 43 56
43 6 0 23 -12 38 -27z m460 -20 l48 -47 0 -107 0 -107 -82 -72 -83 -72 -3 198
-2 197 27 29 c15 15 31 28 37 28 6 0 32 -21 58 -47z m551 19 l27 -29 -2 -197
-3 -198 -82 72 -83 71 0 113 0 114 48 41 c26 22 52 40 58 41 5 0 22 -13 37
-28z m2659 -19 l48 -47 0 -107 0 -107 -82 -72 -83 -72 -3 198 -2 197 27 29
c15 15 31 28 37 28 6 0 32 -21 58 -47z m3120 20 c27 -26 28 -29 28 -138 0
-109 -1 -112 -27 -136 -60 -54 -59 -54 -102 -17 l-41 33 0 100 0 100 47 42
c27 23 52 42 57 43 6 0 23 -12 38 -27z m470 -20 l48 -47 0 -107 0 -107 -82
-72 -83 -72 -3 198 -2 197 27 29 c15 15 31 28 37 28 6 0 32 -21 58 -47z
m-9322 -163 c0 -65 0 -66 -43 -102 l-43 -36 -42 35 -42 35 0 88 c0 88 0 89 32
113 l31 25 54 -46 53 -46 0 -66z m370 -122 c22 -18 39 -37 39 -43 0 -5 -18
-25 -41 -42 l-40 -33 -150 0 -149 0 -45 38 -45 37 43 37 43 38 153 0 153 0 39
-32z m-1015 -13 l40 -34 -40 -35 -40 -35 -239 -1 -238 0 48 44 c120 106 89 95
269 96 l160 0 40 -35z m2580 0 l40 -34 -40 -35 -40 -35 -239 -1 -238 0 48 44
c120 106 89 95 269 96 l160 0 40 -35z m6791 0 l39 -35 -40 -35 -40 -35 -157 0
-158 0 -39 36 -40 35 37 34 37 34 161 1 161 0 39 -35z"/>
<path d="M6835 5670 c-3 -5 3 -10 14 -10 12 0 21 5 21 10 0 6 -6 10 -14 10 -8
0 -18 -4 -21 -10z"/>
<path d="M6881 5658 c-1 -20 14 -24 25 -6 4 6 3 8 -4 4 -5 -3 -13 0 -15 6 -3
8 -6 6 -6 -4z"/>
<path d="M6645 5641 c4 -7 35 -25 69 -41 145 -66 184 -83 236 -108 30 -14 70
-28 88 -33 28 -6 31 -5 21 7 -6 8 -20 14 -30 14 -10 0 -21 4 -24 10 -3 5 -35
23 -70 39 -35 17 -88 41 -117 54 -131 61 -187 80 -173 58z"/>
<path d="M6547 5585 c2 -8 10 -16 16 -19 7 -3 30 -17 52 -30 22 -14 60 -37 85
-51 l45 -26 -38 36 c-21 19 -51 42 -68 50 -16 9 -29 19 -29 24 0 4 -15 12 -34
18 -27 9 -33 8 -29 -2z"/>
<path d="M6327 5523 c8 -23 87 -126 127 -167 17 -17 47 -50 66 -73 19 -23 38
-39 43 -36 5 3 0 15 -10 27 -11 11 -28 35 -38 51 -28 47 -145 183 -171 200
-22 14 -23 14 -17 -2z"/>
<path d="M6460 5511 c0 -11 39 -51 50 -51 18 0 3 30 -22 44 -15 10 -28 13 -28
7z"/>
<path d="M6240 5500 c0 -16 47 -105 99 -189 26 -42 50 -84 54 -93 3 -10 11
-18 17 -18 5 0 10 -7 10 -15 0 -8 9 -19 20 -25 11 -6 29 -29 41 -51 11 -23 23
-38 26 -35 3 3 -5 22 -17 43 -13 21 -35 61 -50 88 -41 77 -128 226 -157 268
-25 36 -43 47 -43 27z"/>
<path d="M6170 5448 c1 -22 44 -135 85 -223 12 -27 26 -59 29 -69 4 -10 9 -17
11 -14 6 5 -67 223 -92 276 -8 17 -19 32 -24 32 -5 0 -9 -1 -9 -2z"/>
<path d="M7105 5430 c3 -5 13 -10 21 -10 8 0 12 5 9 10 -3 6 -13 10 -21 10 -8
0 -12 -4 -9 -10z"/>
<path d="M5979 5338 c-2 -43 -1 -166 1 -198 2 -21 3 -20 11 10 11 44 9 220 -2
220 -5 0 -10 -15 -10 -32z"/>
<path d="M5860 5259 c0 -17 4 -28 10 -24 6 3 10 17 10 31 0 13 -4 24 -10 24
-5 0 -10 -14 -10 -31z"/>
<path d="M5732 5200 c-14 -23 -15 -30 -3 -30 8 0 24 41 18 47 -2 1 -8 -7 -15
-17z"/>
<path d="M6515 5050 c-3 -5 -1 -10 4 -10 6 0 11 5 11 10 0 6 -2 10 -4 10 -3 0
-8 -4 -11 -10z"/>
<path d="M884 4410 c-142 -37 -212 -82 -296 -188 -44 -56 -88 -148 -88 -184 0
-5 -20 -38 -45 -74 -45 -67 -56 -95 -75 -195 -10 -52 -39 -106 -90 -169 -19
-24 -20 -41 -22 -350 -3 -361 -4 -353 66 -446 41 -53 42 -60 20 -85 -26 -28
-8 -39 67 -39 81 0 73 12 121 -170 42 -160 49 -340 20 -490 -13 -64 -27 -212
-37 -380 -16 -261 -30 -356 -58 -393 -7 -10 -44 -23 -92 -32 -143 -27 -315
-105 -344 -156 -13 -23 -12 -29 10 -58 23 -32 25 -33 81 -27 33 3 86 19 124
37 71 34 195 52 208 31 3 -6 -3 -31 -14 -57 -25 -59 -26 -85 -1 -85 29 0 160
149 200 227 21 42 43 157 34 180 -7 17 20 143 87 413 72 291 77 325 86 528 4
89 10 161 14 160 13 -6 154 -164 197 -223 81 -108 113 -195 113 -305 0 -46 -2
-50 -27 -56 -31 -8 -127 -54 -121 -58 30 -28 142 -105 170 -118 50 -23 63 -46
103 -187 41 -144 62 -187 118 -245 47 -49 88 -64 242 -91 77 -13 165 -15 605
-9 l515 6 199 44 c110 24 226 44 258 44 54 0 124 -20 298 -85 40 -15 80 -17
365 -12 312 6 324 7 509 42 162 30 211 35 335 35 140 0 148 -1 196 -27 65 -35
134 -34 228 1 37 14 111 33 165 42 53 8 98 17 101 19 2 2 1 11 -2 20 -5 12
-25 15 -106 15 -79 0 -100 3 -105 15 -7 18 11 30 139 92 l100 48 3 218 c2 195
1 218 -14 224 -27 10 -46 -9 -99 -100 -27 -47 -61 -97 -74 -111 -35 -37 -132
-69 -351 -117 -209 -45 -343 -57 -487 -44 l-78 7 -85 86 c-48 48 -147 163
-220 257 -74 93 -176 215 -226 271 -50 56 -179 218 -286 360 -117 154 -231
293 -281 343 l-85 84 -77 -5 c-68 -5 -89 -11 -179 -57 -55 -28 -174 -104 -264
-169 -89 -64 -221 -159 -292 -211 -137 -98 -216 -176 -306 -297 -69 -94 -83
-95 -171 -18 -83 73 -97 100 -90 178 3 34 10 84 16 111 9 37 8 69 -1 124 -10
58 -10 75 -1 78 7 3 26 28 43 57 27 47 30 63 30 134 l0 81 -72 49 c-40 27
-108 66 -150 87 -87 43 -92 53 -54 110 16 23 30 68 41 129 l17 94 -26 44 c-25
43 -26 51 -26 195 0 145 -1 154 -30 221 -24 56 -30 85 -30 142 0 106 -39 177
-172 306 -131 128 -187 154 -331 153 -56 0 -120 -7 -163 -19z m2253 -2190 c75
-134 164 -220 426 -410 218 -157 291 -238 252 -279 -12 -12 -37 -12 -182 2
-92 10 -188 19 -213 21 -668 64 -940 95 -1002 112 -31 9 -20 28 37 63 81 51
334 317 434 456 24 33 69 86 100 118 l56 58 22 -28 c13 -15 44 -66 70 -113z"/>
<path d="M10777 4402 c-56 -23 -85 -45 -168 -128 -129 -128 -169 -199 -169
-304 0 -57 -6 -86 -30 -142 -29 -67 -30 -76 -30 -221 0 -144 -1 -152 -26 -195
l-26 -44 17 -94 c11 -61 25 -106 41 -129 38 -57 33 -67 -53 -110 -43 -21 -111
-60 -150 -87 l-73 -49 0 -81 c0 -71 3 -87 30 -134 17 -29 36 -54 43 -57 9 -3
9 -20 -1 -78 -9 -55 -10 -87 -1 -124 6 -27 13 -77 16 -111 7 -78 -7 -105 -90
-178 -88 -77 -102 -76 -172 19 -88 119 -170 199 -310 300 -340 247 -477 340
-562 382 -78 39 -103 47 -168 51 l-77 5 -85 -84 c-50 -50 -164 -189 -281 -343
-107 -142 -236 -304 -286 -360 -50 -56 -152 -178 -226 -271 -73 -94 -172 -209
-220 -257 l-85 -86 -78 -7 c-144 -13 -278 -1 -487 44 -219 48 -316 80 -351
117 -13 14 -46 64 -74 111 -53 91 -72 110 -99 100 -15 -6 -16 -29 -14 -224 l3
-218 100 -48 c128 -62 146 -74 139 -92 -5 -12 -26 -15 -105 -15 -81 0 -101 -3
-106 -15 -3 -9 -4 -18 -2 -20 3 -2 48 -11 101 -19 54 -9 128 -28 165 -42 94
-35 163 -36 228 -1 48 26 56 27 196 27 124 0 173 -5 335 -35 185 -35 197 -36
509 -42 285 -5 325 -3 365 12 174 65 244 85 298 85 32 0 148 -20 258 -44 l199
-44 515 -6 c440 -6 528 -4 605 9 154 27 195 42 242 91 56 58 77 101 118 245
40 141 53 164 103 187 28 13 140 90 170 118 6 4 -90 50 -120 58 -26 6 -28 10
-28 56 0 110 32 197 113 305 43 59 184 217 197 223 4 1 10 -71 14 -160 9 -203
14 -237 86 -528 67 -270 94 -396 87 -413 -9 -23 13 -138 34 -180 40 -78 171
-227 200 -227 25 0 24 26 -1 85 -11 26 -17 51 -14 57 13 21 137 3 208 -31 38
-18 91 -34 124 -37 56 -6 58 -5 81 27 22 29 23 35 10 58 -29 51 -201 129 -344
156 -48 9 -85 22 -92 32 -28 37 -42 132 -58 393 -10 168 -24 316 -37 380 -29
150 -22 330 20 490 48 182 40 170 121 170 75 0 93 11 67 39 -22 25 -21 32 20
85 70 93 69 85 66 446 -2 309 -3 326 -22 350 -51 63 -80 117 -90 169 -19 100
-30 128 -75 195 -25 36 -45 69 -45 74 0 36 -44 128 -89 185 -108 137 -237 197
-441 203 -108 4 -119 2 -183 -24z m-1689 -2202 c121 -163 364 -418 447 -471
57 -35 68 -54 38 -63 -63 -17 -335 -48 -1003 -112 -25 -2 -121 -11 -213 -21
-145 -14 -170 -14 -182 -2 -39 41 34 122 252 279 239 174 359 284 403 370 12
25 43 76 67 114 l44 69 46 -44 c25 -24 70 -78 101 -119z"/>
<path d="M0 385 l0 -385 6000 0 6000 0 0 379 c0 336 -2 380 -16 385 -9 3
-2709 6 -6000 6 l-5984 0 0 -385z"/>
</g>
</svg>
